<svg width="14" height="14" viewBox="0 0 14 14" fill="none" xmlns="http://www.w3.org/2000/svg">
<g clip-path="url(#clip0_17_1491)">
<path d="M13.6461 8.71582C13.3547 9.10547 12.9315 9.3584 12.4528 9.42676C12.3557 9.44043 12.2586 9.44727 12.1614 9.44727H8.92854V11.5527C8.92854 12.8994 7.81159 14 6.44489 14C6.2437 14 6.06333 13.8838 5.98701 13.7061L3.48255 8.14844H1.83141C0.825468 8.14844 0.00683594 7.3418 0.00683594 6.35059V1.79785C0.00683594 0.806641 0.825468 0 1.83141 0H11.2734C12.1684 0 12.9454 0.65625 13.0772 1.52441L13.986 7.37598C14.0623 7.85449 13.9375 8.32617 13.653 8.70898L13.6461 8.71582ZM8.4221 8.45605H12.1545C12.2031 8.45605 12.2447 8.45605 12.2933 8.44922C12.5083 8.41504 12.6956 8.30566 12.8274 8.12793C12.9593 7.95703 13.0078 7.74512 12.9801 7.5332L12.0713 1.6748C12.0158 1.29883 11.6689 1.01855 11.2457 0.991211H4.30812V7.54688L6.75708 12.9746C7.43003 12.8311 7.92259 12.2432 7.92259 11.5527V8.94824C7.92259 8.6748 8.15153 8.44922 8.42904 8.44922L8.4221 8.45605ZM1.82448 7.15723H3.30218V0.998047H1.82448C1.37354 0.998047 1.00584 1.36035 1.00584 1.80469V6.35742C1.00584 6.80176 1.37354 7.16406 1.82448 7.16406V7.15723Z" fill="#2A2A2A"/>
</g>
<defs>
<clipPath id="clip0_17_1491">
<rect width="14" height="14" fill="white" transform="matrix(1 0 0 -1 0 14)"/>
</clipPath>
</defs>
</svg>
