<svg width="14" height="14" viewBox="0 0 14 14" fill="none" xmlns="http://www.w3.org/2000/svg">
<g clip-path="url(#clip0_17_1485)">
<path d="M0.916016 3.56488H4.02637V0.908293C4.02637 0.409756 4.43652 0 4.93555 0H13.0908C13.5898 0 14 0.409756 14 0.908293V9.52C14 10.0185 13.5898 10.4283 13.0908 10.4283H9.98047V13.0849C9.98047 13.5834 9.57031 13.9932 9.07129 13.9932H0.916016C0.416992 13.9932 0.00683594 13.5834 0.00683594 13.0849V4.48C0.00683594 3.98146 0.416992 3.57171 0.916016 3.57171V3.56488ZM5.04492 3.56488H9.07129C9.57031 3.56488 9.98047 3.97463 9.98047 4.47317V9.4039H12.9746V1.02439H5.04492V3.56488ZM1.02539 4.58927V12.9756H8.95508V4.58927H1.02539Z" fill="#2A2A2A"/>
</g>
<defs>
<clipPath id="clip0_17_1485">
<rect width="14" height="14" fill="white" transform="matrix(-1 0 0 1 14 0)"/>
</clipPath>
</defs>
</svg>
