<svg width="14" height="14" viewBox="0 0 14 14" fill="none" xmlns="http://www.w3.org/2000/svg">
<g clip-path="url(#clip0_17_1488)">
<path d="M13.6461 5.28418C13.3547 4.89453 12.9315 4.6416 12.4528 4.57324C12.3557 4.55957 12.2586 4.55273 12.1614 4.55273H8.92854V2.44727C8.92854 1.10059 7.81159 0 6.44489 0C6.2437 0 6.06333 0.116211 5.98701 0.293945L3.48255 5.85156H1.83141C0.825468 5.85156 0.00683594 6.6582 0.00683594 7.64941V12.2021C0.00683594 13.1934 0.825468 14 1.83141 14H11.2734C12.1684 14 12.9454 13.3438 13.0772 12.4756L13.986 6.62402C14.0623 6.14551 13.9375 5.67383 13.653 5.29102L13.6461 5.28418ZM8.4221 5.54395H12.1545C12.2031 5.54395 12.2447 5.54395 12.2933 5.55078C12.5083 5.58496 12.6956 5.69434 12.8274 5.87207C12.9593 6.04297 13.0078 6.25488 12.9801 6.4668L12.0713 12.3252C12.0158 12.7012 11.6689 12.9814 11.2457 13.0088H4.30812V6.45312L6.75708 1.02539C7.43003 1.16895 7.92259 1.75684 7.92259 2.44727V5.05176C7.92259 5.3252 8.15153 5.55078 8.42904 5.55078L8.4221 5.54395ZM1.82448 6.84277H3.30218V13.002H1.82448C1.37354 13.002 1.00584 12.6396 1.00584 12.1953V7.64258C1.00584 7.19824 1.37354 6.83594 1.82448 6.83594V6.84277Z" fill="#2A2A2A"/>
</g>
<defs>
<clipPath id="clip0_17_1488">
<rect width="14" height="14" fill="white"/>
</clipPath>
</defs>
</svg>
